<?xml version="1.0" encoding="UTF-8" standalone="no"?><svg xmlns="http://www.w3.org/2000/svg" xmlns:xlink="http://www.w3.org/1999/xlink" style="isolation:isolate" viewBox="0 0 530 100" width="530pt" height="100pt"><defs><clipPath id="_clipPath_w6qw3PqOGXJn0vkj4aPwLZyG7xED38DV"><rect width="530" height="100"/></clipPath></defs><mask id="_mask_Fi0C5sGbuArB9HZhrzix6bU0oW3EboON" x="-200%" y="-200%" width="400%" height="400%"><rect x="-200%" y="-200%" width="400%" height="400%" style="fill:white;"/><polygon points="60,50,-40,100,-40,0" fill="black" stroke="none"/></mask><mask id="_mask_UEXGUw5bSS0tTxuzoxNZsukBjOm55kjX" x="-200%" y="-200%" width="400%" height="400%"><rect x="-200%" y="-200%" width="400%" height="400%" style="fill:white;"/><polygon points="280,50,380,0,380,100" fill="black" stroke="none"/></mask><g clip-path="url(#_clipPath_w6qw3PqOGXJn0vkj4aPwLZyG7xED38DV)"><rect x="160" y="40" width="20" height="100" transform="matrix(0,1,-1,0,260,-80)" fill="rgb(53,73,94)"/><rect x="160" y="0" width="20" height="100" transform="matrix(0,1,-1,0,220,-120)" fill="rgb(65,184,131)"/><rect x="160" y="-40" width="20" height="100" transform="matrix(0,1,-1,0,180,-160)" fill="rgb(53,73,94)"/><rect x="360" y="0" width="20" height="100" transform="matrix(1,0,0,1,0,0)" fill="rgb(53,73,94)"/><path d=" M 478.441 50.007 L 528.627 -0.18 L 514.5 -14.307 L 464.314 35.879 L 414.127 -14.307 L 400 -0.18 L 450.186 50.007 L 400 100.193 L 414.127 114.32 L 464.314 64.134 L 514.5 114.32 L 528.627 100.193 L 478.441 50.007 Z " fill="rgb(53,73,94)"/></g><g clip-path="url(#_clipPath_w6qw3PqOGXJn0vkj4aPwLZyG7xED38DV)" mask="url(#_mask_Fi0C5sGbuArB9HZhrzix6bU0oW3EboON)"><polygon points="100,50,0,100,0,0" fill="rgb(53,73,94)"/></g><g clip-path="url(#_clipPath_w6qw3PqOGXJn0vkj4aPwLZyG7xED38DV)" mask="url(#_mask_UEXGUw5bSS0tTxuzoxNZsukBjOm55kjX)"><polygon points="240,50,340,0,340,100" fill="rgb(53,73,94)"/></g></svg>