<?xml version="1.0" encoding="UTF-8" standalone="no"?><!-- Generator: Gravit.io --><svg xmlns="http://www.w3.org/2000/svg" xmlns:xlink="http://www.w3.org/1999/xlink" style="isolation:isolate" viewBox="0 0 650 450" width="650pt" height="450pt"><defs><clipPath id="_clipPath_Rsqi1ywjaLc3IgB6V2mgMFaVCYLrWZp3"><rect width="650" height="450"/></clipPath></defs><g clip-path="url(#_clipPath_Rsqi1ywjaLc3IgB6V2mgMFaVCYLrWZp3)"><rect width="650" height="450" style="fill:rgb(0,0,0)" fill-opacity="0"/><path d=" M 63 77.5 L 63 196.115 C 48.572 199.587 38 210.764 38 224 C 38 237.236 48.572 248.413 63 251.885 L 63 369.5 L 63 369.5 C 63 397.924 85.852 421 114 421 L 114 429 L 532 429 L 532 421 L 532 421 C 560.148 421 583 397.924 583 369.5 L 583 369.5 L 583 252.312 C 598.44 249.43 610 237.841 610 224 C 610 210.159 598.44 198.57 583 195.688 L 583 77.5 L 583 77.5 C 583 49.076 560.148 26 532 26 L 532 26 L 532 20 L 114 20 L 114 26 C 85.852 26 63 49.076 63 77.5 L 63 77.5 L 63 77.5 Z " fill-rule="evenodd" fill="rgb(255,255,255)"/><path d=" M 137.603 404.171 L 137.603 429 L 117.388 429 L 117.388 429 Q 103.984 429 92.668 424.276 L 92.668 424.276 L 92.668 424.276 Q 81.353 419.552 73.333 411.422 L 73.333 411.422 L 73.333 411.422 Q 65.312 403.292 60.808 391.866 L 60.808 391.866 L 60.808 391.866 Q 56.304 380.44 56.304 366.817 L 56.304 366.817 L 56.304 273.653 L 56.304 273.653 Q 56.304 236.739 15.215 236.739 L 15.215 236.739 L 15.215 212.35 L 15.215 212.35 Q 56.304 212.35 56.304 175.393 L 56.304 175.393 L 56.304 80.803 L 56.304 80.803 Q 56.304 67.165 60.808 55.946 L 60.808 55.946 L 60.808 55.946 Q 65.312 44.727 73.333 36.588 L 73.333 36.588 L 73.333 36.588 Q 81.353 28.449 92.668 23.939 L 92.668 23.939 L 92.668 23.939 Q 103.984 19.43 117.388 19.43 L 117.388 19.43 L 137.603 19.43 L 137.603 43.819 L 117.388 43.819 L 117.388 43.819 Q 80.034 43.819 80.034 80.755 L 80.034 80.755 L 80.034 175.294 L 80.034 175.294 Q 80.034 182.769 77.178 190.904 L 77.178 190.904 L 77.178 190.904 Q 74.321 199.039 69.377 206.074 L 69.377 206.074 L 69.377 206.074 Q 64.434 213.11 57.402 218.276 L 57.402 218.276 L 57.402 218.276 Q 50.371 223.443 42.241 224.762 L 42.241 224.762 L 42.241 224.762 Q 50.371 226.08 57.183 231.021 L 57.183 231.021 L 57.183 231.021 Q 63.994 235.962 69.158 242.989 L 69.158 242.989 L 69.158 242.989 Q 74.321 250.016 77.178 258.031 L 77.178 258.031 L 77.178 258.031 Q 80.034 266.046 80.034 273.732 L 80.034 273.732 L 80.034 366.84 L 80.034 366.84 Q 80.034 404.171 117.388 404.171 L 117.388 404.171 L 137.603 404.171 L 137.603 404.171 Z  M 633.257 212.35 L 633.257 236.739 L 633.257 236.739 Q 592.827 236.739 592.827 273.653 L 592.827 273.653 L 592.827 367.257 L 592.827 367.257 Q 592.827 380.88 588.323 392.086 L 588.323 392.086 L 588.323 392.086 Q 583.818 403.292 575.469 411.642 L 575.469 411.642 L 575.469 411.642 Q 567.119 419.991 555.913 424.496 L 555.913 424.496 L 555.913 424.496 Q 544.707 429 531.304 429 L 531.304 429 L 510.869 429 L 510.869 404.171 L 531.304 404.171 L 531.304 404.171 Q 567.998 404.171 567.998 367.279 L 567.998 367.279 L 567.998 273.732 L 567.998 273.732 Q 567.998 266.046 570.964 257.811 L 570.964 257.811 L 570.964 257.811 Q 573.931 249.576 579.094 242.549 L 579.094 242.549 L 579.094 242.549 Q 584.258 235.522 591.289 230.801 L 591.289 230.801 L 591.289 230.801 Q 598.32 226.08 606.45 224.762 L 606.45 224.762 L 606.45 224.762 Q 598.32 223.003 591.069 218.057 L 591.069 218.057 L 591.069 218.057 Q 583.818 213.11 578.875 206.074 L 578.875 206.074 L 578.875 206.074 Q 573.931 199.039 570.964 190.904 L 570.964 190.904 L 570.964 190.904 Q 567.998 182.769 567.998 175.294 L 567.998 175.294 L 567.998 80.755 L 567.998 80.755 Q 567.998 43.819 531.304 43.819 L 531.304 43.819 L 510.869 43.819 L 510.869 19.43 L 531.304 19.43 L 531.304 19.43 Q 544.707 19.43 555.913 24.159 L 555.913 24.159 L 555.913 24.159 Q 567.119 28.889 575.469 37.028 L 575.469 37.028 L 575.469 37.028 Q 583.818 45.167 588.323 56.386 L 588.323 56.386 L 588.323 56.386 Q 592.827 67.605 592.827 80.803 L 592.827 80.803 L 592.827 175.393 L 592.827 175.393 Q 592.827 212.35 633.257 212.35 L 633.257 212.35 L 633.257 212.35 Z " fill="rgb(0,0,0)"/><g><line x1="146" y1="349" x2="259" y2="176" vector-effect="non-scaling-stroke" stroke-width="35" stroke="rgb(0,150,136)" stroke-linejoin="miter" stroke-linecap="round" stroke-miterlimit="3"/><line x1="293" y1="276" x2="259" y2="176" vector-effect="non-scaling-stroke" stroke-width="35" stroke="rgb(0,150,136)" stroke-linejoin="miter" stroke-linecap="round" stroke-miterlimit="3"/><line x1="343" y1="202" x2="293" y2="276" vector-effect="non-scaling-stroke" stroke-width="35" stroke="rgb(0,150,136)" stroke-linejoin="miter" stroke-linecap="round" stroke-miterlimit="3"/><line x1="343" y1="202" x2="383" y2="248" vector-effect="non-scaling-stroke" stroke-width="35" stroke="rgb(0,150,136)" stroke-linejoin="miter" stroke-linecap="round" stroke-miterlimit="3"/><line x1="383" y1="248" x2="496" y2="97" vector-effect="non-scaling-stroke" stroke-width="35" stroke="rgb(0,150,136)" stroke-linejoin="miter" stroke-linecap="round" stroke-miterlimit="3"/></g></g></svg>