<?xml version="1.0" encoding="UTF-8" standalone="no"?><!-- Generator: Gravit.io --><svg xmlns="http://www.w3.org/2000/svg" xmlns:xlink="http://www.w3.org/1999/xlink" style="isolation:isolate" viewBox="0 0 492 80" width="492pt" height="80pt"><defs><clipPath id="_clipPath_n6FwFcPYvDJ2m8xf1YDukNkDzKIV841o"><rect width="492" height="80"/></clipPath></defs><g clip-path="url(#_clipPath_n6FwFcPYvDJ2m8xf1YDukNkDzKIV841o)"><rect width="492" height="80" style="fill:rgb(0,0,0)" fill-opacity="0"/><path d=" M 14.4 38.76 L 14.4 38.76 L 19.62 38.76 L 19.62 38.76 Q 27.78 38.76 27.78 34.08 L 27.78 34.08 L 27.78 23.34 L 27.78 23.34 Q 27.78 18.66 19.59 18.66 L 19.59 18.66 L 19.59 18.66 Q 11.4 18.66 11.4 23.34 L 11.4 23.34 L 11.4 58.68 L 11.4 58.68 Q 11.4 60.06 9 60.06 L 9 60.06 L 9 60.06 Q 6.6 60.06 6.6 58.68 L 6.6 58.68 L 6.6 23.94 L 6.6 23.94 Q 6.6 18.96 10.14 16.71 L 10.14 16.71 L 10.14 16.71 Q 13.68 14.46 19.56 14.46 L 19.56 14.46 L 19.56 14.46 Q 25.44 14.46 29.01 16.71 L 29.01 16.71 L 29.01 16.71 Q 32.58 18.96 32.58 23.94 L 32.58 23.94 L 32.58 33.48 L 32.58 33.48 Q 32.58 38.46 29.04 40.71 L 29.04 40.71 L 29.04 40.71 Q 25.5 42.96 19.62 42.96 L 19.62 42.96 L 14.4 42.96 L 14.4 42.96 Q 13.2 42.96 13.2 40.86 L 13.2 40.86 L 13.2 40.86 Q 13.2 38.76 14.4 38.76 Z  M 51.18 38.76 L 51.18 38.76 L 56.4 38.76 L 56.4 38.76 Q 64.56 38.76 64.56 34.08 L 64.56 34.08 L 64.56 23.34 L 64.56 23.34 Q 64.56 18.66 56.37 18.66 L 56.37 18.66 L 56.37 18.66 Q 48.18 18.66 48.18 23.34 L 48.18 23.34 L 48.18 58.68 L 48.18 58.68 Q 48.18 60.06 45.78 60.06 L 45.78 60.06 L 45.78 60.06 Q 43.38 60.06 43.38 58.68 L 43.38 58.68 L 43.38 23.94 L 43.38 23.94 Q 43.38 18.96 46.92 16.71 L 46.92 16.71 L 46.92 16.71 Q 50.46 14.46 56.34 14.46 L 56.34 14.46 L 56.34 14.46 Q 62.22 14.46 65.79 16.71 L 65.79 16.71 L 65.79 16.71 Q 69.36 18.96 69.36 23.94 L 69.36 23.94 L 69.36 33.48 L 69.36 33.48 Q 69.36 38.46 65.82 40.71 L 65.82 40.71 L 65.82 40.71 Q 62.28 42.96 56.4 42.96 L 56.4 42.96 L 51.18 42.96 L 51.18 42.96 Q 49.98 42.96 49.98 40.86 L 49.98 40.86 L 49.98 40.86 Q 49.98 38.76 51.18 38.76 Z " fill="rgb(255,255,255)"/><path d=" M 77.76 38.22 L 77.76 38.22 L 97.26 38.22 L 97.26 38.22 Q 98.46 38.22 98.46 40.32 L 98.46 40.32 L 98.46 40.32 Q 98.46 42.42 97.26 42.42 L 97.26 42.42 L 77.76 42.42 L 77.76 42.42 Q 76.56 42.42 76.56 40.32 L 76.56 40.32 L 76.56 40.32 Q 76.56 38.22 77.76 38.22 Z " fill="rgb(162,162,162)"/><path d=" M 103.86 15.36 L 103.86 15.36 L 129.06 15.36 L 129.06 15.36 Q 130.26 15.36 130.26 17.46 L 130.26 17.46 L 130.26 17.46 Q 130.26 19.56 129.06 19.56 L 129.06 19.56 L 118.86 19.56 L 118.86 58.68 L 118.86 58.68 Q 118.86 60.06 116.46 60.06 L 116.46 60.06 L 116.46 60.06 Q 114.06 60.06 114.06 58.68 L 114.06 58.68 L 114.06 19.56 L 103.86 19.56 L 103.86 19.56 Q 102.66 19.56 102.66 17.46 L 102.66 17.46 L 102.66 17.46 Q 102.66 15.36 103.86 15.36 Z  M 149.22 34.74 L 149.22 34.74 L 149.22 31.74 L 149.22 31.74 Q 149.22 27.06 143.64 27.06 L 143.64 27.06 L 143.64 27.06 Q 138.06 27.06 138.06 31.74 L 138.06 31.74 L 138.06 59.28 L 138.06 59.28 Q 138.06 60.66 135.66 60.66 L 135.66 60.66 L 135.66 60.66 Q 133.26 60.66 133.26 59.28 L 133.26 59.28 L 133.26 32.34 L 133.26 32.34 Q 133.26 27.36 136.11 25.11 L 136.11 25.11 L 136.11 25.11 Q 138.96 22.86 143.64 22.86 L 143.64 22.86 L 143.64 22.86 Q 154.02 22.86 154.02 32.22 L 154.02 32.22 L 154.02 34.74 L 154.02 34.74 Q 154.02 36.12 151.62 36.12 L 151.62 36.12 L 151.62 36.12 Q 149.22 36.12 149.22 34.74 Z  M 166.62 24.84 L 166.62 24.84 L 166.62 52.74 L 166.62 52.74 Q 166.62 54.66 167.52 56.31 L 167.52 56.31 L 167.52 56.31 Q 168.42 57.96 168.42 58.02 L 168.42 58.02 L 168.42 58.02 Q 168.42 58.74 167.28 59.55 L 167.28 59.55 L 167.28 59.55 Q 166.14 60.36 165.36 60.36 L 165.36 60.36 L 165.36 60.36 Q 164.1 60.36 162.96 58.17 L 162.96 58.17 L 162.96 58.17 Q 161.82 55.98 161.82 53.34 L 161.82 53.34 L 161.82 24.84 L 161.82 24.84 Q 161.82 23.46 164.22 23.46 L 164.22 23.46 L 164.22 23.46 Q 166.62 23.46 166.62 24.84 Z  M 166.8 12.06 L 166.8 12.06 L 166.8 17.28 L 166.8 17.28 Q 166.8 18.78 164.19 18.78 L 164.19 18.78 L 164.19 18.78 Q 161.58 18.78 161.58 17.28 L 161.58 17.28 L 161.58 12.06 L 161.58 12.06 Q 161.58 10.56 164.19 10.56 L 164.19 10.56 L 164.19 10.56 Q 166.8 10.56 166.8 12.06 Z  M 205.8 32.34 L 205.8 32.34 L 205.8 58.68 L 205.8 58.68 Q 205.8 60.06 203.4 60.06 L 203.4 60.06 L 203.4 60.06 Q 201 60.06 201 58.68 L 201 58.68 L 201 31.74 L 201 31.74 Q 201 27.06 192.81 27.06 L 192.81 27.06 L 192.81 27.06 Q 184.62 27.06 184.62 31.74 L 184.62 31.74 L 184.62 58.68 L 184.62 58.68 Q 184.62 60.06 182.22 60.06 L 182.22 60.06 L 182.22 60.06 Q 179.82 60.06 179.82 58.68 L 179.82 58.68 L 179.82 32.34 L 179.82 32.34 Q 179.82 27.36 183.36 25.11 L 183.36 25.11 L 183.36 25.11 Q 186.9 22.86 192.78 22.86 L 192.78 22.86 L 192.78 22.86 Q 198.66 22.86 202.23 25.11 L 202.23 25.11 L 202.23 25.11 Q 205.8 27.36 205.8 32.34 Z  M 244.68 32.22 L 244.68 32.22 L 244.68 34.02 L 244.68 34.02 Q 244.68 39.12 242.58 41.04 L 242.58 41.04 L 242.58 41.04 Q 240.48 42.96 234.9 43.5 L 234.9 43.5 L 223.2 44.64 L 223.2 51.78 L 223.2 51.78 Q 223.2 56.46 231 56.46 L 231 56.46 L 231 56.46 Q 239.88 56.46 239.88 52.38 L 239.88 52.38 L 239.88 50.1 L 239.88 50.1 Q 239.88 48.72 242.28 48.72 L 242.28 48.72 L 242.28 48.72 Q 244.68 48.72 244.68 50.1 L 244.68 50.1 L 244.68 51.78 L 244.68 51.78 Q 244.68 60.66 231.48 60.66 L 231.48 60.66 L 231.48 60.66 Q 225.66 60.66 222.03 58.38 L 222.03 58.38 L 222.03 58.38 Q 218.4 56.1 218.4 51.18 L 218.4 51.18 L 218.4 32.34 L 218.4 32.34 Q 218.4 27.36 222.24 25.11 L 222.24 25.11 L 222.24 25.11 Q 226.08 22.86 232.26 22.86 L 232.26 22.86 L 232.26 22.86 Q 238.44 22.86 241.56 25.02 L 241.56 25.02 L 241.56 25.02 Q 244.68 27.18 244.68 32.22 Z  M 223.2 31.74 L 223.2 31.74 L 223.2 40.44 L 234.48 39.3 L 234.48 39.3 Q 237.9 38.94 238.89 37.86 L 238.89 37.86 L 238.89 37.86 Q 239.88 36.78 239.88 34.02 L 239.88 34.02 L 239.88 31.74 L 239.88 31.74 Q 239.88 27.06 231.54 27.06 L 231.54 27.06 L 231.54 27.06 Q 223.2 27.06 223.2 31.74 Z " fill="rgb(255,255,255)"/><path d=" M 254.88 38.22 L 254.88 38.22 L 274.38 38.22 L 274.38 38.22 Q 275.58 38.22 275.58 40.32 L 275.58 40.32 L 275.58 40.32 Q 275.58 42.42 274.38 42.42 L 274.38 42.42 L 254.88 42.42 L 254.88 42.42 Q 253.68 42.42 253.68 40.32 L 253.68 40.32 L 253.68 40.32 Q 253.68 38.22 254.88 38.22 Z " fill="rgb(162,162,162)"/><path d=" M 292.98 38.76 L 292.98 38.76 L 298.2 38.76 L 298.2 38.76 Q 306.36 38.76 306.36 34.08 L 306.36 34.08 L 306.36 23.34 L 306.36 23.34 Q 306.36 18.66 298.17 18.66 L 298.17 18.66 L 298.17 18.66 Q 289.98 18.66 289.98 23.34 L 289.98 23.34 L 289.98 58.68 L 289.98 58.68 Q 289.98 60.06 287.58 60.06 L 287.58 60.06 L 287.58 60.06 Q 285.18 60.06 285.18 58.68 L 285.18 58.68 L 285.18 23.94 L 285.18 23.94 Q 285.18 18.96 288.72 16.71 L 288.72 16.71 L 288.72 16.71 Q 292.26 14.46 298.14 14.46 L 298.14 14.46 L 298.14 14.46 Q 304.02 14.46 307.59 16.71 L 307.59 16.71 L 307.59 16.71 Q 311.16 18.96 311.16 23.94 L 311.16 23.94 L 311.16 33.48 L 311.16 33.48 Q 311.16 38.46 307.62 40.71 L 307.62 40.71 L 307.62 40.71 Q 304.08 42.96 298.2 42.96 L 298.2 42.96 L 292.98 42.96 L 292.98 42.96 Q 291.78 42.96 291.78 40.86 L 291.78 40.86 L 291.78 40.86 Q 291.78 38.76 292.98 38.76 Z  M 337.14 59.76 L 337.14 59.76 L 330.12 59.76 L 330.12 59.76 Q 324.84 59.76 322.5 57.6 L 322.5 57.6 L 322.5 57.6 Q 320.16 55.44 320.16 50.28 L 320.16 50.28 L 320.16 49.8 L 320.16 49.8 Q 320.16 44.7 322.26 42.78 L 322.26 42.78 L 322.26 42.78 Q 324.36 40.86 329.76 40.32 L 329.76 40.32 L 340.14 39.3 L 340.14 32.64 L 340.14 32.64 Q 340.14 27.96 331.98 27.96 L 331.98 27.96 L 323.76 27.96 L 323.76 27.96 Q 322.56 27.96 322.56 25.86 L 322.56 25.86 L 322.56 25.86 Q 322.56 23.76 323.76 23.76 L 323.76 23.76 L 331.98 23.76 L 331.98 23.76 Q 337.86 23.76 341.4 26.01 L 341.4 26.01 L 341.4 26.01 Q 344.94 28.26 344.94 33.24 L 344.94 33.24 L 344.94 50.94 L 344.94 50.94 Q 344.94 54.84 346.32 57.12 L 346.32 57.12 L 346.32 57.12 Q 346.74 57.84 346.74 58.02 L 346.74 58.02 L 346.74 58.02 Q 346.74 58.74 345.6 59.55 L 345.6 59.55 L 345.6 59.55 Q 344.46 60.36 343.68 60.36 L 343.68 60.36 L 343.68 60.36 Q 342.36 60.36 341.25 57.87 L 341.25 57.87 L 341.25 57.87 Q 340.14 55.38 340.14 51.54 L 340.14 51.54 L 340.14 43.5 L 330.12 44.52 L 330.12 44.52 Q 326.88 44.88 325.92 45.96 L 325.92 45.96 L 325.92 45.96 Q 324.96 47.04 324.96 49.8 L 324.96 49.8 L 324.96 50.28 L 324.96 50.28 Q 324.96 53.16 325.95 54.36 L 325.95 54.36 L 325.95 54.36 Q 326.94 55.56 330.12 55.56 L 330.12 55.56 L 337.14 55.56 L 337.14 55.56 Q 338.34 55.56 338.34 57.66 L 338.34 57.66 L 338.34 57.66 Q 338.34 59.76 337.14 59.76 Z  M 374.1 34.74 L 374.1 34.74 L 374.1 31.74 L 374.1 31.74 Q 374.1 27.06 368.52 27.06 L 368.52 27.06 L 368.52 27.06 Q 362.94 27.06 362.94 31.74 L 362.94 31.74 L 362.94 59.28 L 362.94 59.28 Q 362.94 60.66 360.54 60.66 L 360.54 60.66 L 360.54 60.66 Q 358.14 60.66 358.14 59.28 L 358.14 59.28 L 358.14 32.34 L 358.14 32.34 Q 358.14 27.36 360.99 25.11 L 360.99 25.11 L 360.99 25.11 Q 363.84 22.86 368.52 22.86 L 368.52 22.86 L 368.52 22.86 Q 378.9 22.86 378.9 32.22 L 378.9 32.22 L 378.9 34.74 L 378.9 34.74 Q 378.9 36.12 376.5 36.12 L 376.5 36.12 L 376.5 36.12 Q 374.1 36.12 374.1 34.74 Z  M 406.8 34.14 L 406.8 34.14 L 406.8 31.8 L 406.8 31.8 Q 406.8 27.06 399.06 27.06 L 399.06 27.06 L 399.06 27.06 Q 395.76 27.06 393.66 28.14 L 393.66 28.14 L 393.66 28.14 Q 391.56 29.22 391.56 31.56 L 391.56 31.56 L 391.56 32.88 L 391.56 32.88 Q 391.56 36.12 392.4 37.11 L 392.4 37.11 L 392.4 37.11 Q 393.24 38.1 396 38.76 L 396 38.76 L 401.22 40.08 L 401.22 40.08 Q 408.66 42 410.04 43.8 L 410.04 43.8 L 410.04 43.8 Q 411.72 46.02 411.72 49.68 L 411.72 49.68 L 411.72 51.84 L 411.72 51.84 Q 411.72 56.52 408.09 58.59 L 408.09 58.59 L 408.09 58.59 Q 404.46 60.66 398.7 60.66 L 398.7 60.66 L 398.7 60.66 Q 389.34 60.66 386.82 55.92 L 386.82 55.92 L 386.82 55.92 Q 385.8 53.94 385.8 51.12 L 385.8 51.12 L 385.8 49.2 L 385.8 49.2 Q 385.8 48.42 386.34 48.15 L 386.34 48.15 L 386.34 48.15 Q 386.88 47.88 388.2 47.88 L 388.2 47.88 L 388.2 47.88 Q 390.54 47.88 390.54 49.38 L 390.54 49.38 L 390.54 52.08 L 390.54 52.08 Q 390.54 54.48 392.64 55.47 L 392.64 55.47 L 392.64 55.47 Q 394.74 56.46 398.76 56.46 L 398.76 56.46 L 398.76 56.46 Q 406.98 56.46 406.98 52.26 L 406.98 52.26 L 406.98 49.08 L 406.98 49.08 Q 406.98 47.22 405.57 46.2 L 405.57 46.2 L 405.57 46.2 Q 404.16 45.18 400.74 44.28 L 400.74 44.28 L 395.46 42.96 L 395.46 42.96 Q 390.12 41.64 388.47 39.81 L 388.47 39.81 L 388.47 39.81 Q 386.82 37.98 386.82 32.7 L 386.82 32.7 L 386.82 31.98 L 386.82 31.98 Q 386.94 27.18 390.24 25.02 L 390.24 25.02 L 390.24 25.02 Q 393.54 22.86 398.94 22.86 L 398.94 22.86 L 398.94 22.86 Q 411.54 22.86 411.54 32.22 L 411.54 32.22 L 411.54 34.32 L 411.54 34.32 Q 411.54 35.58 409.17 35.58 L 409.17 35.58 L 409.17 35.58 Q 406.8 35.58 406.8 34.14 Z  M 450.3 32.22 L 450.3 32.22 L 450.3 34.02 L 450.3 34.02 Q 450.3 39.12 448.2 41.04 L 448.2 41.04 L 448.2 41.04 Q 446.1 42.96 440.52 43.5 L 440.52 43.5 L 428.82 44.64 L 428.82 51.78 L 428.82 51.78 Q 428.82 56.46 436.62 56.46 L 436.62 56.46 L 436.62 56.46 Q 445.5 56.46 445.5 52.38 L 445.5 52.38 L 445.5 50.1 L 445.5 50.1 Q 445.5 48.72 447.9 48.72 L 447.9 48.72 L 447.9 48.72 Q 450.3 48.72 450.3 50.1 L 450.3 50.1 L 450.3 51.78 L 450.3 51.78 Q 450.3 60.66 437.1 60.66 L 437.1 60.66 L 437.1 60.66 Q 431.28 60.66 427.65 58.38 L 427.65 58.38 L 427.65 58.38 Q 424.02 56.1 424.02 51.18 L 424.02 51.18 L 424.02 32.34 L 424.02 32.34 Q 424.02 27.36 427.86 25.11 L 427.86 25.11 L 427.86 25.11 Q 431.7 22.86 437.88 22.86 L 437.88 22.86 L 437.88 22.86 Q 444.06 22.86 447.18 25.02 L 447.18 25.02 L 447.18 25.02 Q 450.3 27.18 450.3 32.22 Z  M 428.82 31.74 L 428.82 31.74 L 428.82 40.44 L 440.1 39.3 L 440.1 39.3 Q 443.52 38.94 444.51 37.86 L 444.51 37.86 L 444.51 37.86 Q 445.5 36.78 445.5 34.02 L 445.5 34.02 L 445.5 31.74 L 445.5 31.74 Q 445.5 27.06 437.16 27.06 L 437.16 27.06 L 437.16 27.06 Q 428.82 27.06 428.82 31.74 Z  M 478.86 34.74 L 478.86 34.74 L 478.86 31.74 L 478.86 31.74 Q 478.86 27.06 473.28 27.06 L 473.28 27.06 L 473.28 27.06 Q 467.7 27.06 467.7 31.74 L 467.7 31.74 L 467.7 59.28 L 467.7 59.28 Q 467.7 60.66 465.3 60.66 L 465.3 60.66 L 465.3 60.66 Q 462.9 60.66 462.9 59.28 L 462.9 59.28 L 462.9 32.34 L 462.9 32.34 Q 462.9 27.36 465.75 25.11 L 465.75 25.11 L 465.75 25.11 Q 468.6 22.86 473.28 22.86 L 473.28 22.86 L 473.28 22.86 Q 483.66 22.86 483.66 32.22 L 483.66 32.22 L 483.66 34.74 L 483.66 34.74 Q 483.66 36.12 481.26 36.12 L 481.26 36.12 L 481.26 36.12 Q 478.86 36.12 478.86 34.74 Z " fill="rgb(255,255,255)"/></g></svg>