<?xml version="1.0" encoding="UTF-8" standalone="no"?><svg xmlns="http://www.w3.org/2000/svg" xmlns:xlink="http://www.w3.org/1999/xlink" style="isolation:isolate" viewBox="0 0 175 50" width="175pt" height="50pt"><defs><clipPath id="_clipPath_3A4PCFXYl0KEZpLHb8jkJv8Ag44zndNA"><rect width="175" height="50"/></clipPath></defs><g clip-path="url(#_clipPath_3A4PCFXYl0KEZpLHb8jkJv8Ag44zndNA)"><rect width="175" height="50" style="fill:rgb(0,0,0)" fill-opacity="0"/><g><g><g><path d=" M 106.482 3.432 C 101.906 -1.144 94.486 -1.144 89.91 3.432 L 80.115 13.227 C 75.381 17.961 75.82 25.504 80.115 29.8 C 80.835 30.519 81.63 31.105 82.471 31.587 L 84.258 29.8 C 85.431 28.627 85.018 27.256 84.997 26.267 C 84.74 26.085 84.49 25.887 84.258 25.656 C 82.054 23.452 81.955 19.673 84.258 17.37 C 84.601 17.028 93.845 7.783 94.053 7.576 C 96.338 5.291 100.054 5.291 102.339 7.576 C 104.624 9.861 104.624 13.577 102.339 15.862 L 95.865 22.336 C 96.052 23.372 97.176 25.826 96.598 29.873 C 96.626 29.846 96.66 29.828 96.688 29.8 L 106.482 20.005 C 111.059 15.429 111.059 8.009 106.482 3.432 Z " fill="rgb(255,255,255)"/></g></g><g style="opacity:0.75;"><g><path d=" M 90.473 19.442 C 89.754 18.722 88.958 18.136 88.118 17.654 L 86.33 19.442 C 85.157 20.614 85.57 21.985 85.591 22.974 C 85.849 23.156 86.099 23.354 86.33 23.585 C 88.534 25.789 88.634 29.568 86.33 31.871 C 85.987 32.214 75.977 42.224 75.777 42.424 C 73.492 44.709 69.775 44.709 67.49 42.424 C 65.205 40.139 65.205 36.423 67.49 34.138 L 74.723 26.905 C 74.536 25.869 73.413 23.415 73.991 19.368 C 73.962 19.395 73.928 19.413 73.9 19.441 L 63.347 29.995 C 58.771 34.571 58.771 41.991 63.347 46.568 C 67.924 51.144 75.343 51.144 79.92 46.568 L 90.473 36.014 C 95.119 31.368 94.865 23.834 90.473 19.442 Z " fill="rgb(255,255,255)"/></g></g></g><g><g><g><path d=" M 160.266 22.791 C 160.013 22.231 159.457 21.875 158.844 21.875 L 152.594 21.875 L 152.594 1.563 C 152.594 0.7 151.894 0 151.032 0 L 144.782 0 C 143.919 0 143.219 0.7 143.219 1.563 L 143.219 21.875 L 136.969 21.875 C 136.357 21.875 135.801 22.234 135.548 22.791 C 135.291 23.35 135.391 24.003 135.794 24.466 L 146.732 36.966 C 147.029 37.306 147.457 37.5 147.907 37.5 C 148.357 37.5 148.785 37.303 149.082 36.966 L 160.019 24.466 C 160.426 24.006 160.519 23.35 160.266 22.791 Z " fill="rgb(255,255,255)"/></g></g><g style="opacity:0.75;"><g><path d=" M 165.094 34.375 L 165.094 43.75 L 130.719 43.75 L 130.719 34.375 L 124.469 34.375 L 124.469 46.875 C 124.469 48.603 125.869 50 127.594 50 L 168.219 50 C 169.948 50 171.344 48.603 171.344 46.875 L 171.344 34.375 L 165.094 34.375 Z " fill="rgb(255,255,255)"/></g></g></g><g><path d=" M 8.78 23.166 C 9.285 23.754 10.145 23.884 10.801 23.47 L 15.804 20.31 L 18.79 20.776 L 18.79 22.053 L 9.652 30.756 C 9.16 31.225 9.167 31.728 9.167 32.182 C 9.167 33.045 9.867 33.745 10.73 33.745 L 31.81 33.745 C 32.265 33.745 32.698 33.547 32.995 33.201 C 37.573 27.875 38.905 21.898 36.556 15.679 C 32.147 4.002 22.784 4.603 15.838 0.243 C 14.644 -0.506 13.137 0.592 13.495 1.962 L 15.02 7.797 L 5.446 17.014 C 4.849 17.589 4.804 18.529 5.343 19.158 L 8.78 23.166 Z " fill="rgb(255,255,255)"/><path d=" M 33.139 37.046 L 9.55 37.046 C 6.3 37.046 3.656 39.69 3.656 42.94 L 3.656 48.437 C 3.656 49.3 4.355 50 5.219 50 L 37.47 50 C 38.333 50 39.033 49.3 39.033 48.437 L 39.033 42.94 C 39.033 39.69 36.389 37.046 33.139 37.046 L 33.139 37.046 Z " fill="rgb(255,255,255)"/></g></g></svg>