<?xml version="1.0" encoding="UTF-8" standalone="no"?><!-- Generator: Gravit.io --><svg xmlns="http://www.w3.org/2000/svg" xmlns:xlink="http://www.w3.org/1999/xlink" style="isolation:isolate" viewBox="0 0 500 100" width="500pt" height="100pt"><defs><clipPath id="_clipPath_r1gcxbEzIXsacLTPRL7epQiwmA3Ly7Vt"><rect width="500" height="100"/></clipPath></defs><g clip-path="url(#_clipPath_r1gcxbEzIXsacLTPRL7epQiwmA3Ly7Vt)"><rect width="500" height="100" style="fill:rgb(0,0,0)" fill-opacity="0"/><rect x="250" y="0" width="250" height="100" transform="matrix(1,0,0,1,0,0)" fill="rgb(74,134,232)"/><path d=" M 23.2 61.76 L 23.2 28.4 L 24 28.4 L 24 61.76 L 24 61.76 Q 24 66.24 27.16 69 L 27.16 69 L 27.16 69 Q 30.32 71.76 39.2 71.76 L 39.2 71.76 L 39.2 71.76 Q 48.08 71.76 51.28 69 L 51.28 69 L 51.28 69 Q 54.48 66.24 54.48 61.76 L 54.48 61.76 L 54.48 28.4 L 55.28 28.4 L 55.28 61.76 L 55.28 61.76 Q 55.28 66.56 51.92 69.56 L 51.92 69.56 L 51.92 69.56 Q 48.56 72.56 39.2 72.56 L 39.2 72.56 L 39.2 72.56 Q 29.84 72.56 26.52 69.56 L 26.52 69.56 L 26.52 69.56 Q 23.2 66.56 23.2 61.76 L 23.2 61.76 L 23.2 61.76 Z  M 104.88 71.6 L 104.88 71.6 L 83.36 71.6 L 83.36 28.4 L 99.6 28.4 L 99.6 28.4 Q 102.88 28.4 104.96 29.08 L 104.96 29.08 L 104.96 29.08 Q 107.04 29.76 108.16 30.92 L 108.16 30.92 L 108.16 30.92 Q 109.28 32.08 109.68 33.6 L 109.68 33.6 L 109.68 33.6 Q 110.08 35.12 110.08 36.88 L 110.08 36.88 L 110.08 42 L 110.08 42 Q 110.08 44.4 109.24 46.4 L 109.24 46.4 L 109.24 46.4 Q 108.4 48.4 104.96 49.28 L 104.96 49.28 L 104.96 49.28 Q 108.24 49.28 110.32 49.96 L 110.32 49.96 L 110.32 49.96 Q 112.4 50.64 113.52 51.88 L 113.52 51.88 L 113.52 51.88 Q 114.64 53.12 115 54.8 L 115 54.8 L 115 54.8 Q 115.36 56.48 115.36 58.48 L 115.36 58.48 L 115.36 63.6 L 115.36 63.6 Q 115.36 65.36 114.96 66.84 L 114.96 66.84 L 114.96 66.84 Q 114.56 68.32 113.48 69.36 L 113.48 69.36 L 113.48 69.36 Q 112.4 70.4 110.32 71 L 110.32 71 L 110.32 71 Q 108.24 71.6 104.88 71.6 Z  M 99.6 29.2 L 99.6 29.2 L 84.16 29.2 L 84.16 49.28 L 99.6 49.28 L 99.6 49.28 Q 102.88 49.28 104.8 48.68 L 104.8 48.68 L 104.8 48.68 Q 106.72 48.08 107.72 47.08 L 107.72 47.08 L 107.72 47.08 Q 108.72 46.08 109 44.76 L 109 44.76 L 109 44.76 Q 109.28 43.44 109.28 42 L 109.28 42 L 109.28 36.88 L 109.28 36.88 Q 109.28 33.68 107.44 31.44 L 107.44 31.44 L 107.44 31.44 Q 105.6 29.2 99.6 29.2 Z  M 104.96 50.08 L 104.96 50.08 L 84.16 50.08 L 84.16 70.8 L 104.88 70.8 L 104.88 70.8 Q 110.88 70.8 112.72 68.84 L 112.72 68.84 L 112.72 68.84 Q 114.56 66.88 114.56 63.6 L 114.56 63.6 L 114.56 58.48 L 114.56 58.48 Q 114.56 54.88 112.76 52.48 L 112.76 52.48 L 112.76 52.48 Q 110.96 50.08 104.96 50.08 Z  M 142 70.8 L 168.16 70.8 L 168.16 71.6 L 141.2 71.6 L 141.2 28.4 L 168.16 28.4 L 168.16 29.2 L 142 29.2 L 142 49.28 L 161.68 49.28 L 161.68 50.08 L 142 50.08 L 142 70.8 L 142 70.8 Z  M 211.68 29.2 L 211.68 29.2 L 194.24 29.2 L 194.24 52.32 L 211.68 52.32 L 211.68 52.32 Q 216.64 52.32 218.32 49.92 L 218.32 49.92 L 218.32 49.92 Q 220 47.52 220 43.12 L 220 43.12 L 220 37.52 L 220 37.52 Q 220 33.84 217.96 31.52 L 217.96 31.52 L 217.96 31.52 Q 215.92 29.2 211.68 29.2 Z  M 194.24 53.04 L 194.24 71.6 L 193.44 71.6 L 193.44 28.4 L 211.68 28.4 L 211.68 28.4 Q 216.32 28.4 218.56 31 L 218.56 31 L 218.56 31 Q 220.8 33.6 220.8 37.52 L 220.8 37.52 L 220.8 43.04 L 220.8 43.04 Q 220.8 46.72 219.84 49.08 L 219.84 49.08 L 219.84 49.08 Q 218.88 51.44 216 52.32 L 216 52.32 L 216.88 52.32 L 216.88 52.32 Q 221.76 52.32 224.16 54.52 L 224.16 54.52 L 224.16 54.52 Q 226.56 56.72 226.56 60.88 L 226.56 60.88 L 226.56 71.6 L 225.76 71.6 L 225.76 60.88 L 225.76 60.88 Q 225.76 56.96 223.6 55 L 223.6 55 L 223.6 55 Q 221.44 53.04 216.88 53.04 L 216.88 53.04 L 194.24 53.04 L 194.24 53.04 Z " fill="rgb(74,134,232)"/><path d=" M 23.2 61.76 L 23.2 28.4 L 24 28.4 L 24 61.76 L 24 61.76 Q 24 66.24 27.16 69 L 27.16 69 L 27.16 69 Q 30.32 71.76 39.2 71.76 L 39.2 71.76 L 39.2 71.76 Q 48.08 71.76 51.28 69 L 51.28 69 L 51.28 69 Q 54.48 66.24 54.48 61.76 L 54.48 61.76 L 54.48 28.4 L 55.28 28.4 L 55.28 61.76 L 55.28 61.76 Q 55.28 66.56 51.92 69.56 L 51.92 69.56 L 51.92 69.56 Q 48.56 72.56 39.2 72.56 L 39.2 72.56 L 39.2 72.56 Q 29.84 72.56 26.52 69.56 L 26.52 69.56 L 26.52 69.56 Q 23.2 66.56 23.2 61.76 L 23.2 61.76 L 23.2 61.76 Z  M 104.88 71.6 L 104.88 71.6 L 83.36 71.6 L 83.36 28.4 L 99.6 28.4 L 99.6 28.4 Q 102.88 28.4 104.96 29.08 L 104.96 29.08 L 104.96 29.08 Q 107.04 29.76 108.16 30.92 L 108.16 30.92 L 108.16 30.92 Q 109.28 32.08 109.68 33.6 L 109.68 33.6 L 109.68 33.6 Q 110.08 35.12 110.08 36.88 L 110.08 36.88 L 110.08 42 L 110.08 42 Q 110.08 44.4 109.24 46.4 L 109.24 46.4 L 109.24 46.4 Q 108.4 48.4 104.96 49.28 L 104.96 49.28 L 104.96 49.28 Q 108.24 49.28 110.32 49.96 L 110.32 49.96 L 110.32 49.96 Q 112.4 50.64 113.52 51.88 L 113.52 51.88 L 113.52 51.88 Q 114.64 53.12 115 54.8 L 115 54.8 L 115 54.8 Q 115.36 56.48 115.36 58.48 L 115.36 58.48 L 115.36 63.6 L 115.36 63.6 Q 115.36 65.36 114.96 66.84 L 114.96 66.84 L 114.96 66.84 Q 114.56 68.32 113.48 69.36 L 113.48 69.36 L 113.48 69.36 Q 112.4 70.4 110.32 71 L 110.32 71 L 110.32 71 Q 108.24 71.6 104.88 71.6 Z  M 99.6 29.2 L 99.6 29.2 L 84.16 29.2 L 84.16 49.28 L 99.6 49.28 L 99.6 49.28 Q 102.88 49.28 104.8 48.68 L 104.8 48.68 L 104.8 48.68 Q 106.72 48.08 107.72 47.08 L 107.72 47.08 L 107.72 47.08 Q 108.72 46.08 109 44.76 L 109 44.76 L 109 44.76 Q 109.28 43.44 109.28 42 L 109.28 42 L 109.28 36.88 L 109.28 36.88 Q 109.28 33.68 107.44 31.44 L 107.44 31.44 L 107.44 31.44 Q 105.6 29.2 99.6 29.2 Z  M 104.96 50.08 L 104.96 50.08 L 84.16 50.08 L 84.16 70.8 L 104.88 70.8 L 104.88 70.8 Q 110.88 70.8 112.72 68.84 L 112.72 68.84 L 112.72 68.84 Q 114.56 66.88 114.56 63.6 L 114.56 63.6 L 114.56 58.48 L 114.56 58.48 Q 114.56 54.88 112.76 52.48 L 112.76 52.48 L 112.76 52.48 Q 110.96 50.08 104.96 50.08 Z  M 142 70.8 L 168.16 70.8 L 168.16 71.6 L 141.2 71.6 L 141.2 28.4 L 168.16 28.4 L 168.16 29.2 L 142 29.2 L 142 49.28 L 161.68 49.28 L 161.68 50.08 L 142 50.08 L 142 70.8 L 142 70.8 Z  M 211.68 29.2 L 211.68 29.2 L 194.24 29.2 L 194.24 52.32 L 211.68 52.32 L 211.68 52.32 Q 216.64 52.32 218.32 49.92 L 218.32 49.92 L 218.32 49.92 Q 220 47.52 220 43.12 L 220 43.12 L 220 37.52 L 220 37.52 Q 220 33.84 217.96 31.52 L 217.96 31.52 L 217.96 31.52 Q 215.92 29.2 211.68 29.2 Z  M 194.24 53.04 L 194.24 71.6 L 193.44 71.6 L 193.44 28.4 L 211.68 28.4 L 211.68 28.4 Q 216.32 28.4 218.56 31 L 218.56 31 L 218.56 31 Q 220.8 33.6 220.8 37.52 L 220.8 37.52 L 220.8 43.04 L 220.8 43.04 Q 220.8 46.72 219.84 49.08 L 219.84 49.08 L 219.84 49.08 Q 218.88 51.44 216 52.32 L 216 52.32 L 216.88 52.32 L 216.88 52.32 Q 221.76 52.32 224.16 54.52 L 224.16 54.52 L 224.16 54.52 Q 226.56 56.72 226.56 60.88 L 226.56 60.88 L 226.56 71.6 L 225.76 71.6 L 225.76 60.88 L 225.76 60.88 Q 225.76 56.96 223.6 55 L 223.6 55 L 223.6 55 Q 221.44 53.04 216.88 53.04 L 216.88 53.04 L 194.24 53.04 L 194.24 53.04 Z " fill="rgb(74,134,232)"/><path d=" M 23.2 61.76 L 23.2 28.4 L 24 28.4 L 24 61.76 L 24 61.76 Q 24 66.24 27.16 69 L 27.16 69 L 27.16 69 Q 30.32 71.76 39.2 71.76 L 39.2 71.76 L 39.2 71.76 Q 48.08 71.76 51.28 69 L 51.28 69 L 51.28 69 Q 54.48 66.24 54.48 61.76 L 54.48 61.76 L 54.48 28.4 L 55.28 28.4 L 55.28 61.76 L 55.28 61.76 Q 55.28 66.56 51.92 69.56 L 51.92 69.56 L 51.92 69.56 Q 48.56 72.56 39.2 72.56 L 39.2 72.56 L 39.2 72.56 Q 29.84 72.56 26.52 69.56 L 26.52 69.56 L 26.52 69.56 Q 23.2 66.56 23.2 61.76 L 23.2 61.76 L 23.2 61.76 Z  M 104.88 71.6 L 104.88 71.6 L 83.36 71.6 L 83.36 28.4 L 99.6 28.4 L 99.6 28.4 Q 102.88 28.4 104.96 29.08 L 104.96 29.08 L 104.96 29.08 Q 107.04 29.76 108.16 30.92 L 108.16 30.92 L 108.16 30.92 Q 109.28 32.08 109.68 33.6 L 109.68 33.6 L 109.68 33.6 Q 110.08 35.12 110.08 36.88 L 110.08 36.88 L 110.08 42 L 110.08 42 Q 110.08 44.4 109.24 46.4 L 109.24 46.4 L 109.24 46.4 Q 108.4 48.4 104.96 49.28 L 104.96 49.28 L 104.96 49.28 Q 108.24 49.28 110.32 49.96 L 110.32 49.96 L 110.32 49.96 Q 112.4 50.64 113.52 51.88 L 113.52 51.88 L 113.52 51.88 Q 114.64 53.12 115 54.8 L 115 54.8 L 115 54.8 Q 115.36 56.48 115.36 58.48 L 115.36 58.48 L 115.36 63.6 L 115.36 63.6 Q 115.36 65.36 114.96 66.84 L 114.96 66.84 L 114.96 66.84 Q 114.56 68.32 113.48 69.36 L 113.48 69.36 L 113.48 69.36 Q 112.4 70.4 110.32 71 L 110.32 71 L 110.32 71 Q 108.24 71.6 104.88 71.6 Z  M 99.6 29.2 L 99.6 29.2 L 84.16 29.2 L 84.16 49.28 L 99.6 49.28 L 99.6 49.28 Q 102.88 49.28 104.8 48.68 L 104.8 48.68 L 104.8 48.68 Q 106.72 48.08 107.72 47.08 L 107.72 47.08 L 107.72 47.08 Q 108.72 46.08 109 44.76 L 109 44.76 L 109 44.76 Q 109.28 43.44 109.28 42 L 109.28 42 L 109.28 36.88 L 109.28 36.88 Q 109.28 33.68 107.44 31.44 L 107.44 31.44 L 107.44 31.44 Q 105.6 29.2 99.6 29.2 Z  M 104.96 50.08 L 104.96 50.08 L 84.16 50.08 L 84.16 70.8 L 104.88 70.8 L 104.88 70.8 Q 110.88 70.8 112.72 68.84 L 112.72 68.84 L 112.72 68.84 Q 114.56 66.88 114.56 63.6 L 114.56 63.6 L 114.56 58.48 L 114.56 58.48 Q 114.56 54.88 112.76 52.48 L 112.76 52.48 L 112.76 52.48 Q 110.96 50.08 104.96 50.08 Z  M 142 70.8 L 168.16 70.8 L 168.16 71.6 L 141.2 71.6 L 141.2 28.4 L 168.16 28.4 L 168.16 29.2 L 142 29.2 L 142 49.28 L 161.68 49.28 L 161.68 50.08 L 142 50.08 L 142 70.8 L 142 70.8 Z  M 211.68 29.2 L 211.68 29.2 L 194.24 29.2 L 194.24 52.32 L 211.68 52.32 L 211.68 52.32 Q 216.64 52.32 218.32 49.92 L 218.32 49.92 L 218.32 49.92 Q 220 47.52 220 43.12 L 220 43.12 L 220 37.52 L 220 37.52 Q 220 33.84 217.96 31.52 L 217.96 31.52 L 217.96 31.52 Q 215.92 29.2 211.68 29.2 Z  M 194.24 53.04 L 194.24 71.6 L 193.44 71.6 L 193.44 28.4 L 211.68 28.4 L 211.68 28.4 Q 216.32 28.4 218.56 31 L 218.56 31 L 218.56 31 Q 220.8 33.6 220.8 37.52 L 220.8 37.52 L 220.8 43.04 L 220.8 43.04 Q 220.8 46.72 219.84 49.08 L 219.84 49.08 L 219.84 49.08 Q 218.88 51.44 216 52.32 L 216 52.32 L 216.88 52.32 L 216.88 52.32 Q 221.76 52.32 224.16 54.52 L 224.16 54.52 L 224.16 54.52 Q 226.56 56.72 226.56 60.88 L 226.56 60.88 L 226.56 71.6 L 225.76 71.6 L 225.76 60.88 L 225.76 60.88 Q 225.76 56.96 223.6 55 L 223.6 55 L 223.6 55 Q 221.44 53.04 216.88 53.04 L 216.88 53.04 L 194.24 53.04 L 194.24 53.04 Z " fill="rgb(74,134,232)"/><path d=" M 23.2 61.76 L 23.2 28.4 L 24 28.4 L 24 61.76 L 24 61.76 Q 24 66.24 27.16 69 L 27.16 69 L 27.16 69 Q 30.32 71.76 39.2 71.76 L 39.2 71.76 L 39.2 71.76 Q 48.08 71.76 51.28 69 L 51.28 69 L 51.28 69 Q 54.48 66.24 54.48 61.76 L 54.48 61.76 L 54.48 28.4 L 55.28 28.4 L 55.28 61.76 L 55.28 61.76 Q 55.28 66.56 51.92 69.56 L 51.92 69.56 L 51.92 69.56 Q 48.56 72.56 39.2 72.56 L 39.2 72.56 L 39.2 72.56 Q 29.84 72.56 26.52 69.56 L 26.52 69.56 L 26.52 69.56 Q 23.2 66.56 23.2 61.76 L 23.2 61.76 L 23.2 61.76 Z  M 104.88 71.6 L 104.88 71.6 L 83.36 71.6 L 83.36 28.4 L 99.6 28.4 L 99.6 28.4 Q 102.88 28.4 104.96 29.08 L 104.96 29.08 L 104.96 29.08 Q 107.04 29.76 108.16 30.92 L 108.16 30.92 L 108.16 30.92 Q 109.28 32.08 109.68 33.6 L 109.68 33.6 L 109.68 33.6 Q 110.08 35.12 110.08 36.88 L 110.08 36.88 L 110.08 42 L 110.08 42 Q 110.08 44.4 109.24 46.4 L 109.24 46.4 L 109.24 46.4 Q 108.4 48.4 104.96 49.28 L 104.96 49.28 L 104.96 49.28 Q 108.24 49.28 110.32 49.96 L 110.32 49.96 L 110.32 49.96 Q 112.4 50.64 113.52 51.88 L 113.52 51.88 L 113.52 51.88 Q 114.64 53.12 115 54.8 L 115 54.8 L 115 54.8 Q 115.36 56.48 115.36 58.48 L 115.36 58.48 L 115.36 63.6 L 115.36 63.6 Q 115.36 65.36 114.96 66.84 L 114.96 66.84 L 114.96 66.84 Q 114.56 68.32 113.48 69.36 L 113.48 69.36 L 113.48 69.36 Q 112.4 70.4 110.32 71 L 110.32 71 L 110.32 71 Q 108.24 71.6 104.88 71.6 Z  M 99.6 29.2 L 99.6 29.2 L 84.16 29.2 L 84.16 49.28 L 99.6 49.28 L 99.6 49.28 Q 102.88 49.28 104.8 48.68 L 104.8 48.68 L 104.8 48.68 Q 106.72 48.08 107.72 47.08 L 107.72 47.08 L 107.72 47.08 Q 108.72 46.08 109 44.76 L 109 44.76 L 109 44.76 Q 109.28 43.44 109.28 42 L 109.28 42 L 109.28 36.88 L 109.28 36.88 Q 109.28 33.68 107.44 31.44 L 107.44 31.44 L 107.44 31.44 Q 105.6 29.2 99.6 29.2 Z  M 104.96 50.08 L 104.96 50.08 L 84.16 50.08 L 84.16 70.8 L 104.88 70.8 L 104.88 70.8 Q 110.88 70.8 112.72 68.84 L 112.72 68.84 L 112.72 68.84 Q 114.56 66.88 114.56 63.6 L 114.56 63.6 L 114.56 58.48 L 114.56 58.48 Q 114.56 54.88 112.76 52.48 L 112.76 52.48 L 112.76 52.48 Q 110.96 50.08 104.96 50.08 Z  M 142 70.8 L 168.16 70.8 L 168.16 71.6 L 141.2 71.6 L 141.2 28.4 L 168.16 28.4 L 168.16 29.2 L 142 29.2 L 142 49.28 L 161.68 49.28 L 161.68 50.08 L 142 50.08 L 142 70.8 L 142 70.8 Z  M 211.68 29.2 L 211.68 29.2 L 194.24 29.2 L 194.24 52.32 L 211.68 52.32 L 211.68 52.32 Q 216.64 52.32 218.32 49.92 L 218.32 49.92 L 218.32 49.92 Q 220 47.52 220 43.12 L 220 43.12 L 220 37.52 L 220 37.52 Q 220 33.84 217.96 31.52 L 217.96 31.52 L 217.96 31.52 Q 215.92 29.2 211.68 29.2 Z  M 194.24 53.04 L 194.24 71.6 L 193.44 71.6 L 193.44 28.4 L 211.68 28.4 L 211.68 28.4 Q 216.32 28.4 218.56 31 L 218.56 31 L 218.56 31 Q 220.8 33.6 220.8 37.52 L 220.8 37.52 L 220.8 43.04 L 220.8 43.04 Q 220.8 46.72 219.84 49.08 L 219.84 49.08 L 219.84 49.08 Q 218.88 51.44 216 52.32 L 216 52.32 L 216.88 52.32 L 216.88 52.32 Q 221.76 52.32 224.16 54.52 L 224.16 54.52 L 224.16 54.52 Q 226.56 56.72 226.56 60.88 L 226.56 60.88 L 226.56 71.6 L 225.76 71.6 L 225.76 60.88 L 225.76 60.88 Q 225.76 56.96 223.6 55 L 223.6 55 L 223.6 55 Q 221.44 53.04 216.88 53.04 L 216.88 53.04 L 194.24 53.04 L 194.24 53.04 Z " fill="rgb(74,134,232)"/><path d=" M 23.2 61.76 L 23.2 28.4 L 24 28.4 L 24 61.76 L 24 61.76 Q 24 66.24 27.16 69 L 27.16 69 L 27.16 69 Q 30.32 71.76 39.2 71.76 L 39.2 71.76 L 39.2 71.76 Q 48.08 71.76 51.28 69 L 51.28 69 L 51.28 69 Q 54.48 66.24 54.48 61.76 L 54.48 61.76 L 54.48 28.4 L 55.28 28.4 L 55.28 61.76 L 55.28 61.76 Q 55.28 66.56 51.92 69.56 L 51.92 69.56 L 51.92 69.56 Q 48.56 72.56 39.2 72.56 L 39.2 72.56 L 39.2 72.56 Q 29.84 72.56 26.52 69.56 L 26.52 69.56 L 26.52 69.56 Q 23.2 66.56 23.2 61.76 L 23.2 61.76 L 23.2 61.76 Z  M 104.88 71.6 L 104.88 71.6 L 83.36 71.6 L 83.36 28.4 L 99.6 28.4 L 99.6 28.4 Q 102.88 28.4 104.96 29.08 L 104.96 29.08 L 104.96 29.08 Q 107.04 29.76 108.16 30.92 L 108.16 30.92 L 108.16 30.92 Q 109.28 32.08 109.68 33.6 L 109.68 33.6 L 109.68 33.6 Q 110.08 35.12 110.08 36.88 L 110.08 36.88 L 110.08 42 L 110.08 42 Q 110.08 44.4 109.24 46.4 L 109.24 46.4 L 109.24 46.4 Q 108.4 48.4 104.96 49.28 L 104.96 49.28 L 104.96 49.28 Q 108.24 49.28 110.32 49.96 L 110.32 49.96 L 110.32 49.96 Q 112.4 50.64 113.52 51.88 L 113.52 51.88 L 113.52 51.88 Q 114.64 53.12 115 54.8 L 115 54.8 L 115 54.8 Q 115.36 56.48 115.36 58.48 L 115.36 58.48 L 115.36 63.6 L 115.36 63.6 Q 115.36 65.36 114.96 66.84 L 114.96 66.84 L 114.96 66.84 Q 114.56 68.32 113.48 69.36 L 113.48 69.36 L 113.48 69.36 Q 112.4 70.4 110.32 71 L 110.32 71 L 110.32 71 Q 108.24 71.6 104.88 71.6 Z  M 99.6 29.2 L 99.6 29.2 L 84.16 29.2 L 84.16 49.28 L 99.6 49.28 L 99.6 49.28 Q 102.88 49.28 104.8 48.68 L 104.8 48.68 L 104.8 48.68 Q 106.72 48.08 107.72 47.08 L 107.72 47.08 L 107.72 47.08 Q 108.72 46.08 109 44.76 L 109 44.76 L 109 44.76 Q 109.28 43.44 109.28 42 L 109.28 42 L 109.28 36.88 L 109.28 36.88 Q 109.28 33.68 107.44 31.44 L 107.44 31.44 L 107.44 31.44 Q 105.6 29.2 99.6 29.2 Z  M 104.96 50.08 L 104.96 50.08 L 84.16 50.08 L 84.16 70.8 L 104.88 70.8 L 104.88 70.8 Q 110.88 70.8 112.72 68.84 L 112.72 68.84 L 112.72 68.84 Q 114.56 66.88 114.56 63.6 L 114.56 63.6 L 114.56 58.48 L 114.56 58.48 Q 114.56 54.88 112.76 52.48 L 112.76 52.48 L 112.76 52.48 Q 110.96 50.08 104.96 50.08 Z  M 142 70.8 L 168.16 70.8 L 168.16 71.6 L 141.2 71.6 L 141.2 28.4 L 168.16 28.4 L 168.16 29.2 L 142 29.2 L 142 49.28 L 161.68 49.28 L 161.68 50.08 L 142 50.08 L 142 70.8 L 142 70.8 Z  M 211.68 29.2 L 211.68 29.2 L 194.24 29.2 L 194.24 52.32 L 211.68 52.32 L 211.68 52.32 Q 216.64 52.32 218.32 49.92 L 218.32 49.92 L 218.32 49.92 Q 220 47.52 220 43.12 L 220 43.12 L 220 37.52 L 220 37.52 Q 220 33.84 217.96 31.52 L 217.96 31.52 L 217.96 31.52 Q 215.92 29.2 211.68 29.2 Z  M 194.24 53.04 L 194.24 71.6 L 193.44 71.6 L 193.44 28.4 L 211.68 28.4 L 211.68 28.4 Q 216.32 28.4 218.56 31 L 218.56 31 L 218.56 31 Q 220.8 33.6 220.8 37.52 L 220.8 37.52 L 220.8 43.04 L 220.8 43.04 Q 220.8 46.72 219.84 49.08 L 219.84 49.08 L 219.84 49.08 Q 218.88 51.44 216 52.32 L 216 52.32 L 216.88 52.32 L 216.88 52.32 Q 221.76 52.32 224.16 54.52 L 224.16 54.52 L 224.16 54.52 Q 226.56 56.72 226.56 60.88 L 226.56 60.88 L 226.56 71.6 L 225.76 71.6 L 225.76 60.88 L 225.76 60.88 Q 225.76 56.96 223.6 55 L 223.6 55 L 223.6 55 Q 221.44 53.04 216.88 53.04 L 216.88 53.04 L 194.24 53.04 L 194.24 53.04 Z " fill="rgb(74,134,232)"/><path d=" M 277.115 76.318 L 276.773 76.318 L 276.773 25.049 L 280.396 23.34 L 298.648 23.34 L 298.648 23.34 Q 310.611 23.34 310.611 35.303 L 310.611 35.303 L 310.611 45.557 L 310.611 45.557 Q 310.611 57.52 298.648 57.52 L 298.648 57.52 L 283.609 57.52 L 283.609 73.242 L 277.115 76.318 L 277.115 76.318 Z  M 298.648 29.492 L 283.609 29.492 L 283.609 51.367 L 298.648 51.367 L 298.648 51.367 Q 303.775 51.367 303.775 45.557 L 303.775 45.557 L 303.775 35.303 L 303.775 35.303 Q 303.775 29.492 298.648 29.492 L 298.648 29.492 L 298.648 29.492 Z  M 331.207 76.318 L 330.865 76.318 L 330.865 35.303 L 330.865 35.303 Q 330.865 23.34 342.828 23.34 L 342.828 23.34 L 353.423 23.34 L 353.423 23.34 Q 365.386 23.34 365.386 35.303 L 365.386 35.303 L 365.386 73.242 L 358.892 76.318 L 358.55 76.318 L 358.55 52.256 L 337.701 52.256 L 337.701 73.242 L 331.207 76.318 L 331.207 76.318 Z  M 337.701 35.303 L 337.701 46.035 L 358.55 46.035 L 358.55 35.303 L 358.55 35.303 Q 358.55 29.492 353.423 29.492 L 353.423 29.492 L 342.828 29.492 L 342.828 29.492 Q 337.701 29.492 337.701 35.303 L 337.701 35.303 L 337.701 35.303 Z  M 411.617 74.951 L 401.021 74.951 L 401.021 74.951 Q 389.058 74.951 389.058 62.988 L 389.058 62.988 L 389.058 35.303 L 389.058 35.303 Q 389.058 23.34 401.021 23.34 L 401.021 23.34 L 411.617 23.34 L 411.617 23.34 Q 423.58 23.34 423.58 35.303 L 423.58 35.303 L 423.58 39.063 L 417.086 42.139 L 416.744 42.139 L 416.744 35.303 L 416.744 35.303 Q 416.744 29.492 411.617 29.492 L 411.617 29.492 L 401.021 29.492 L 401.021 29.492 Q 395.894 29.492 395.894 35.303 L 395.894 35.303 L 395.894 62.988 L 395.894 62.988 Q 395.894 68.799 401.021 68.799 L 401.021 68.799 L 411.617 68.799 L 411.617 68.799 Q 416.744 68.799 416.744 62.988 L 416.744 62.988 L 416.744 52.256 L 404.849 52.256 L 404.849 51.914 L 407.618 46.035 L 423.58 46.035 L 423.58 62.988 L 423.58 62.988 Q 423.58 74.951 411.617 74.951 L 411.617 74.951 L 411.617 74.951 Z  M 475.484 74.951 L 447.252 74.951 L 447.252 25.049 L 450.875 23.34 L 472.545 23.34 L 472.545 23.682 L 469.776 29.561 L 454.088 29.561 L 454.088 46.035 L 472.545 46.035 L 472.545 46.377 L 469.776 52.256 L 454.088 52.256 L 454.088 68.73 L 478.253 68.73 L 478.253 69.072 L 475.484 74.951 L 475.484 74.951 Z " fill="rgb(255,255,255)"/></g></svg>