<?xml version="1.0" encoding="UTF-8" standalone="no"?><!-- Generator: Gravit.io --><svg xmlns="http://www.w3.org/2000/svg" xmlns:xlink="http://www.w3.org/1999/xlink" style="isolation:isolate" viewBox="0 0 250 200" width="250pt" height="200pt"><defs><clipPath id="_clipPath_J2nbndliXWwWTNddqPJGZgKYeSV66vFX"><rect width="250" height="200"/></clipPath></defs><g clip-path="url(#_clipPath_J2nbndliXWwWTNddqPJGZgKYeSV66vFX)"><rect width="250" height="200" style="fill:rgb(0,0,0)" fill-opacity="0"/><rect x="0" y="100" width="250" height="100" transform="matrix(1,0,0,1,0,0)" fill="rgb(74,134,232)"/><path d=" M 23.2 61.76 L 23.2 28.4 L 24 28.4 L 24 61.76 L 24 61.76 Q 24 66.24 27.16 69 L 27.16 69 L 27.16 69 Q 30.32 71.76 39.2 71.76 L 39.2 71.76 L 39.2 71.76 Q 48.08 71.76 51.28 69 L 51.28 69 L 51.28 69 Q 54.48 66.24 54.48 61.76 L 54.48 61.76 L 54.48 28.4 L 55.28 28.4 L 55.28 61.76 L 55.28 61.76 Q 55.28 66.56 51.92 69.56 L 51.92 69.56 L 51.92 69.56 Q 48.56 72.56 39.2 72.56 L 39.2 72.56 L 39.2 72.56 Q 29.84 72.56 26.52 69.56 L 26.52 69.56 L 26.52 69.56 Q 23.2 66.56 23.2 61.76 L 23.2 61.76 L 23.2 61.76 Z  M 104.88 71.6 L 104.88 71.6 L 83.36 71.6 L 83.36 28.4 L 99.6 28.4 L 99.6 28.4 Q 102.88 28.4 104.96 29.08 L 104.96 29.08 L 104.96 29.08 Q 107.04 29.76 108.16 30.92 L 108.16 30.92 L 108.16 30.92 Q 109.28 32.08 109.68 33.6 L 109.68 33.6 L 109.68 33.6 Q 110.08 35.12 110.08 36.88 L 110.08 36.88 L 110.08 42 L 110.08 42 Q 110.08 44.4 109.24 46.4 L 109.24 46.4 L 109.24 46.4 Q 108.4 48.4 104.96 49.28 L 104.96 49.28 L 104.96 49.28 Q 108.24 49.28 110.32 49.96 L 110.32 49.96 L 110.32 49.96 Q 112.4 50.64 113.52 51.88 L 113.52 51.88 L 113.52 51.88 Q 114.64 53.12 115 54.8 L 115 54.8 L 115 54.8 Q 115.36 56.48 115.36 58.48 L 115.36 58.48 L 115.36 63.6 L 115.36 63.6 Q 115.36 65.36 114.96 66.84 L 114.96 66.84 L 114.96 66.84 Q 114.56 68.32 113.48 69.36 L 113.48 69.36 L 113.48 69.36 Q 112.4 70.4 110.32 71 L 110.32 71 L 110.32 71 Q 108.24 71.6 104.88 71.6 Z  M 99.6 29.2 L 99.6 29.2 L 84.16 29.2 L 84.16 49.28 L 99.6 49.28 L 99.6 49.28 Q 102.88 49.28 104.8 48.68 L 104.8 48.68 L 104.8 48.68 Q 106.72 48.08 107.72 47.08 L 107.72 47.08 L 107.72 47.08 Q 108.72 46.08 109 44.76 L 109 44.76 L 109 44.76 Q 109.28 43.44 109.28 42 L 109.28 42 L 109.28 36.88 L 109.28 36.88 Q 109.28 33.68 107.44 31.44 L 107.44 31.44 L 107.44 31.44 Q 105.6 29.2 99.6 29.2 Z  M 104.96 50.08 L 104.96 50.08 L 84.16 50.08 L 84.16 70.8 L 104.88 70.8 L 104.88 70.8 Q 110.88 70.8 112.72 68.84 L 112.72 68.84 L 112.72 68.84 Q 114.56 66.88 114.56 63.6 L 114.56 63.6 L 114.56 58.48 L 114.56 58.48 Q 114.56 54.88 112.76 52.48 L 112.76 52.48 L 112.76 52.48 Q 110.96 50.08 104.96 50.08 Z  M 142 70.8 L 168.16 70.8 L 168.16 71.6 L 141.2 71.6 L 141.2 28.4 L 168.16 28.4 L 168.16 29.2 L 142 29.2 L 142 49.28 L 161.68 49.28 L 161.68 50.08 L 142 50.08 L 142 70.8 L 142 70.8 Z  M 211.68 29.2 L 211.68 29.2 L 194.24 29.2 L 194.24 52.32 L 211.68 52.32 L 211.68 52.32 Q 216.64 52.32 218.32 49.92 L 218.32 49.92 L 218.32 49.92 Q 220 47.52 220 43.12 L 220 43.12 L 220 37.52 L 220 37.52 Q 220 33.84 217.96 31.52 L 217.96 31.52 L 217.96 31.52 Q 215.92 29.2 211.68 29.2 Z  M 194.24 53.04 L 194.24 71.6 L 193.44 71.6 L 193.44 28.4 L 211.68 28.4 L 211.68 28.4 Q 216.32 28.4 218.56 31 L 218.56 31 L 218.56 31 Q 220.8 33.6 220.8 37.52 L 220.8 37.52 L 220.8 43.04 L 220.8 43.04 Q 220.8 46.72 219.84 49.08 L 219.84 49.08 L 219.84 49.08 Q 218.88 51.44 216 52.32 L 216 52.32 L 216.88 52.32 L 216.88 52.32 Q 221.76 52.32 224.16 54.52 L 224.16 54.52 L 224.16 54.52 Q 226.56 56.72 226.56 60.88 L 226.56 60.88 L 226.56 71.6 L 225.76 71.6 L 225.76 60.88 L 225.76 60.88 Q 225.76 56.96 223.6 55 L 223.6 55 L 223.6 55 Q 221.44 53.04 216.88 53.04 L 216.88 53.04 L 194.24 53.04 L 194.24 53.04 Z " fill="rgb(74,134,232)"/><path d=" M 23.2 61.76 L 23.2 28.4 L 24 28.4 L 24 61.76 L 24 61.76 Q 24 66.24 27.16 69 L 27.16 69 L 27.16 69 Q 30.32 71.76 39.2 71.76 L 39.2 71.76 L 39.2 71.76 Q 48.08 71.76 51.28 69 L 51.28 69 L 51.28 69 Q 54.48 66.24 54.48 61.76 L 54.48 61.76 L 54.48 28.4 L 55.28 28.4 L 55.28 61.76 L 55.28 61.76 Q 55.28 66.56 51.92 69.56 L 51.92 69.56 L 51.92 69.56 Q 48.56 72.56 39.2 72.56 L 39.2 72.56 L 39.2 72.56 Q 29.84 72.56 26.52 69.56 L 26.52 69.56 L 26.52 69.56 Q 23.2 66.56 23.2 61.76 L 23.2 61.76 L 23.2 61.76 Z  M 104.88 71.6 L 104.88 71.6 L 83.36 71.6 L 83.36 28.4 L 99.6 28.4 L 99.6 28.4 Q 102.88 28.4 104.96 29.08 L 104.96 29.08 L 104.96 29.08 Q 107.04 29.76 108.16 30.92 L 108.16 30.92 L 108.16 30.92 Q 109.28 32.08 109.68 33.6 L 109.68 33.6 L 109.68 33.6 Q 110.08 35.12 110.08 36.88 L 110.08 36.88 L 110.08 42 L 110.08 42 Q 110.08 44.4 109.24 46.4 L 109.24 46.4 L 109.24 46.4 Q 108.4 48.4 104.96 49.28 L 104.96 49.28 L 104.96 49.28 Q 108.24 49.28 110.32 49.96 L 110.32 49.96 L 110.32 49.96 Q 112.4 50.64 113.52 51.88 L 113.52 51.88 L 113.52 51.88 Q 114.64 53.12 115 54.8 L 115 54.8 L 115 54.8 Q 115.36 56.48 115.36 58.48 L 115.36 58.48 L 115.36 63.6 L 115.36 63.6 Q 115.36 65.36 114.96 66.84 L 114.96 66.84 L 114.96 66.84 Q 114.56 68.32 113.48 69.36 L 113.48 69.36 L 113.48 69.36 Q 112.4 70.4 110.32 71 L 110.32 71 L 110.32 71 Q 108.24 71.6 104.88 71.6 Z  M 99.6 29.2 L 99.6 29.2 L 84.16 29.2 L 84.16 49.28 L 99.6 49.28 L 99.6 49.28 Q 102.88 49.28 104.8 48.68 L 104.8 48.68 L 104.8 48.68 Q 106.72 48.08 107.72 47.08 L 107.72 47.08 L 107.72 47.08 Q 108.72 46.08 109 44.76 L 109 44.76 L 109 44.76 Q 109.28 43.44 109.28 42 L 109.28 42 L 109.28 36.88 L 109.28 36.88 Q 109.28 33.68 107.44 31.44 L 107.44 31.44 L 107.44 31.44 Q 105.6 29.2 99.6 29.2 Z  M 104.96 50.08 L 104.96 50.08 L 84.16 50.08 L 84.16 70.8 L 104.88 70.8 L 104.88 70.8 Q 110.88 70.8 112.72 68.84 L 112.72 68.84 L 112.72 68.84 Q 114.56 66.88 114.56 63.6 L 114.56 63.6 L 114.56 58.48 L 114.56 58.48 Q 114.56 54.88 112.76 52.48 L 112.76 52.48 L 112.76 52.48 Q 110.96 50.08 104.96 50.08 Z  M 142 70.8 L 168.16 70.8 L 168.16 71.6 L 141.2 71.6 L 141.2 28.4 L 168.16 28.4 L 168.16 29.2 L 142 29.2 L 142 49.28 L 161.68 49.28 L 161.68 50.08 L 142 50.08 L 142 70.8 L 142 70.8 Z  M 211.68 29.2 L 211.68 29.2 L 194.24 29.2 L 194.24 52.32 L 211.68 52.32 L 211.68 52.32 Q 216.64 52.32 218.32 49.92 L 218.32 49.92 L 218.32 49.92 Q 220 47.52 220 43.12 L 220 43.12 L 220 37.52 L 220 37.52 Q 220 33.84 217.96 31.52 L 217.96 31.52 L 217.96 31.52 Q 215.92 29.2 211.68 29.2 Z  M 194.24 53.04 L 194.24 71.6 L 193.44 71.6 L 193.44 28.4 L 211.68 28.4 L 211.68 28.4 Q 216.32 28.4 218.56 31 L 218.56 31 L 218.56 31 Q 220.8 33.6 220.8 37.52 L 220.8 37.52 L 220.8 43.04 L 220.8 43.04 Q 220.8 46.72 219.84 49.08 L 219.84 49.08 L 219.84 49.08 Q 218.88 51.44 216 52.32 L 216 52.32 L 216.88 52.32 L 216.88 52.32 Q 221.76 52.32 224.16 54.52 L 224.16 54.52 L 224.16 54.52 Q 226.56 56.72 226.56 60.88 L 226.56 60.88 L 226.56 71.6 L 225.76 71.6 L 225.76 60.88 L 225.76 60.88 Q 225.76 56.96 223.6 55 L 223.6 55 L 223.6 55 Q 221.44 53.04 216.88 53.04 L 216.88 53.04 L 194.24 53.04 L 194.24 53.04 Z " fill="rgb(74,134,232)"/><path d=" M 23.2 61.76 L 23.2 28.4 L 24 28.4 L 24 61.76 L 24 61.76 Q 24 66.24 27.16 69 L 27.16 69 L 27.16 69 Q 30.32 71.76 39.2 71.76 L 39.2 71.76 L 39.2 71.76 Q 48.08 71.76 51.28 69 L 51.28 69 L 51.28 69 Q 54.48 66.24 54.48 61.76 L 54.48 61.76 L 54.48 28.4 L 55.28 28.4 L 55.28 61.76 L 55.28 61.76 Q 55.28 66.56 51.92 69.56 L 51.92 69.56 L 51.92 69.56 Q 48.56 72.56 39.2 72.56 L 39.2 72.56 L 39.2 72.56 Q 29.84 72.56 26.52 69.56 L 26.52 69.56 L 26.52 69.56 Q 23.2 66.56 23.2 61.76 L 23.2 61.76 L 23.2 61.76 Z  M 104.88 71.6 L 104.88 71.6 L 83.36 71.6 L 83.36 28.4 L 99.6 28.4 L 99.6 28.4 Q 102.88 28.4 104.96 29.08 L 104.96 29.08 L 104.96 29.08 Q 107.04 29.76 108.16 30.92 L 108.16 30.92 L 108.16 30.92 Q 109.28 32.08 109.68 33.6 L 109.68 33.6 L 109.68 33.6 Q 110.08 35.12 110.08 36.88 L 110.08 36.88 L 110.08 42 L 110.08 42 Q 110.08 44.4 109.24 46.4 L 109.24 46.4 L 109.24 46.4 Q 108.4 48.4 104.96 49.28 L 104.96 49.28 L 104.96 49.28 Q 108.24 49.28 110.32 49.96 L 110.32 49.96 L 110.32 49.96 Q 112.4 50.64 113.52 51.88 L 113.52 51.88 L 113.52 51.88 Q 114.64 53.12 115 54.8 L 115 54.8 L 115 54.8 Q 115.36 56.48 115.36 58.48 L 115.36 58.48 L 115.36 63.6 L 115.36 63.6 Q 115.36 65.36 114.96 66.84 L 114.96 66.84 L 114.96 66.84 Q 114.56 68.32 113.48 69.36 L 113.48 69.36 L 113.48 69.36 Q 112.4 70.4 110.32 71 L 110.32 71 L 110.32 71 Q 108.24 71.6 104.88 71.6 Z  M 99.6 29.2 L 99.6 29.2 L 84.16 29.2 L 84.16 49.28 L 99.6 49.28 L 99.6 49.28 Q 102.88 49.28 104.8 48.68 L 104.8 48.68 L 104.8 48.68 Q 106.72 48.08 107.72 47.08 L 107.72 47.08 L 107.72 47.08 Q 108.72 46.08 109 44.76 L 109 44.76 L 109 44.76 Q 109.28 43.44 109.28 42 L 109.28 42 L 109.28 36.88 L 109.28 36.88 Q 109.28 33.68 107.44 31.44 L 107.44 31.44 L 107.44 31.44 Q 105.6 29.2 99.6 29.2 Z  M 104.96 50.08 L 104.96 50.08 L 84.16 50.08 L 84.16 70.8 L 104.88 70.8 L 104.88 70.8 Q 110.88 70.8 112.72 68.84 L 112.72 68.84 L 112.72 68.84 Q 114.56 66.88 114.56 63.6 L 114.56 63.6 L 114.56 58.48 L 114.56 58.48 Q 114.56 54.88 112.76 52.48 L 112.76 52.48 L 112.76 52.48 Q 110.96 50.08 104.96 50.08 Z  M 142 70.8 L 168.16 70.8 L 168.16 71.6 L 141.2 71.6 L 141.2 28.4 L 168.16 28.4 L 168.16 29.2 L 142 29.2 L 142 49.28 L 161.68 49.28 L 161.68 50.08 L 142 50.08 L 142 70.8 L 142 70.8 Z  M 211.68 29.2 L 211.68 29.2 L 194.24 29.2 L 194.24 52.32 L 211.68 52.32 L 211.68 52.32 Q 216.64 52.32 218.32 49.92 L 218.32 49.92 L 218.32 49.92 Q 220 47.52 220 43.12 L 220 43.12 L 220 37.52 L 220 37.52 Q 220 33.84 217.96 31.52 L 217.96 31.52 L 217.96 31.52 Q 215.92 29.2 211.68 29.2 Z  M 194.24 53.04 L 194.24 71.6 L 193.44 71.6 L 193.44 28.4 L 211.68 28.4 L 211.68 28.4 Q 216.32 28.4 218.56 31 L 218.56 31 L 218.56 31 Q 220.8 33.6 220.8 37.52 L 220.8 37.52 L 220.8 43.04 L 220.8 43.04 Q 220.8 46.72 219.84 49.08 L 219.84 49.08 L 219.84 49.08 Q 218.88 51.44 216 52.32 L 216 52.32 L 216.88 52.32 L 216.88 52.32 Q 221.76 52.32 224.16 54.52 L 224.16 54.52 L 224.16 54.52 Q 226.56 56.72 226.56 60.88 L 226.56 60.88 L 226.56 71.6 L 225.76 71.6 L 225.76 60.88 L 225.76 60.88 Q 225.76 56.96 223.6 55 L 223.6 55 L 223.6 55 Q 221.44 53.04 216.88 53.04 L 216.88 53.04 L 194.24 53.04 L 194.24 53.04 Z " fill="rgb(74,134,232)"/><path d=" M 23.2 61.76 L 23.2 28.4 L 24 28.4 L 24 61.76 L 24 61.76 Q 24 66.24 27.16 69 L 27.16 69 L 27.16 69 Q 30.32 71.76 39.2 71.76 L 39.2 71.76 L 39.2 71.76 Q 48.08 71.76 51.28 69 L 51.28 69 L 51.28 69 Q 54.48 66.24 54.48 61.76 L 54.48 61.76 L 54.48 28.4 L 55.28 28.4 L 55.28 61.76 L 55.28 61.76 Q 55.28 66.56 51.92 69.56 L 51.92 69.56 L 51.92 69.56 Q 48.56 72.56 39.2 72.56 L 39.2 72.56 L 39.2 72.56 Q 29.84 72.56 26.52 69.56 L 26.52 69.56 L 26.52 69.56 Q 23.2 66.56 23.2 61.76 L 23.2 61.76 L 23.2 61.76 Z  M 104.88 71.6 L 104.88 71.6 L 83.36 71.6 L 83.36 28.4 L 99.6 28.4 L 99.6 28.4 Q 102.88 28.4 104.96 29.08 L 104.96 29.08 L 104.96 29.08 Q 107.04 29.76 108.16 30.92 L 108.16 30.92 L 108.16 30.92 Q 109.28 32.08 109.68 33.6 L 109.68 33.6 L 109.68 33.6 Q 110.08 35.12 110.08 36.88 L 110.08 36.88 L 110.08 42 L 110.08 42 Q 110.08 44.4 109.24 46.4 L 109.24 46.4 L 109.24 46.4 Q 108.4 48.4 104.96 49.28 L 104.96 49.28 L 104.96 49.28 Q 108.24 49.28 110.32 49.96 L 110.32 49.96 L 110.32 49.96 Q 112.4 50.64 113.52 51.88 L 113.52 51.88 L 113.52 51.88 Q 114.64 53.12 115 54.8 L 115 54.8 L 115 54.8 Q 115.36 56.48 115.36 58.48 L 115.36 58.48 L 115.36 63.6 L 115.36 63.6 Q 115.36 65.36 114.96 66.84 L 114.96 66.84 L 114.96 66.84 Q 114.56 68.32 113.48 69.36 L 113.48 69.36 L 113.48 69.36 Q 112.4 70.4 110.32 71 L 110.32 71 L 110.32 71 Q 108.24 71.6 104.88 71.6 Z  M 99.6 29.2 L 99.6 29.2 L 84.16 29.2 L 84.16 49.28 L 99.6 49.28 L 99.6 49.28 Q 102.88 49.28 104.8 48.68 L 104.8 48.68 L 104.8 48.68 Q 106.72 48.08 107.72 47.08 L 107.72 47.08 L 107.72 47.08 Q 108.72 46.08 109 44.76 L 109 44.76 L 109 44.76 Q 109.28 43.44 109.28 42 L 109.28 42 L 109.28 36.88 L 109.28 36.88 Q 109.28 33.68 107.44 31.44 L 107.44 31.44 L 107.44 31.44 Q 105.6 29.2 99.6 29.2 Z  M 104.96 50.08 L 104.96 50.08 L 84.16 50.08 L 84.16 70.8 L 104.88 70.8 L 104.88 70.8 Q 110.88 70.8 112.72 68.84 L 112.72 68.84 L 112.72 68.84 Q 114.56 66.88 114.56 63.6 L 114.56 63.6 L 114.56 58.48 L 114.56 58.48 Q 114.56 54.88 112.76 52.48 L 112.76 52.48 L 112.76 52.48 Q 110.96 50.08 104.96 50.08 Z  M 142 70.8 L 168.16 70.8 L 168.16 71.6 L 141.2 71.6 L 141.2 28.4 L 168.16 28.4 L 168.16 29.2 L 142 29.2 L 142 49.28 L 161.68 49.28 L 161.68 50.08 L 142 50.08 L 142 70.8 L 142 70.8 Z  M 211.68 29.2 L 211.68 29.2 L 194.24 29.2 L 194.24 52.32 L 211.68 52.32 L 211.68 52.32 Q 216.64 52.32 218.32 49.92 L 218.32 49.92 L 218.32 49.92 Q 220 47.52 220 43.12 L 220 43.12 L 220 37.52 L 220 37.52 Q 220 33.84 217.96 31.52 L 217.96 31.52 L 217.96 31.52 Q 215.92 29.2 211.68 29.2 Z  M 194.24 53.04 L 194.24 71.6 L 193.44 71.6 L 193.44 28.4 L 211.68 28.4 L 211.68 28.4 Q 216.32 28.4 218.56 31 L 218.56 31 L 218.56 31 Q 220.8 33.6 220.8 37.52 L 220.8 37.52 L 220.8 43.04 L 220.8 43.04 Q 220.8 46.72 219.84 49.08 L 219.84 49.08 L 219.84 49.08 Q 218.88 51.44 216 52.32 L 216 52.32 L 216.88 52.32 L 216.88 52.32 Q 221.76 52.32 224.16 54.52 L 224.16 54.52 L 224.16 54.52 Q 226.56 56.72 226.56 60.88 L 226.56 60.88 L 226.56 71.6 L 225.76 71.6 L 225.76 60.88 L 225.76 60.88 Q 225.76 56.96 223.6 55 L 223.6 55 L 223.6 55 Q 221.44 53.04 216.88 53.04 L 216.88 53.04 L 194.24 53.04 L 194.24 53.04 Z " fill="rgb(74,134,232)"/><path d=" M 23.2 61.76 L 23.2 28.4 L 24 28.4 L 24 61.76 L 24 61.76 Q 24 66.24 27.16 69 L 27.16 69 L 27.16 69 Q 30.32 71.76 39.2 71.76 L 39.2 71.76 L 39.2 71.76 Q 48.08 71.76 51.28 69 L 51.28 69 L 51.28 69 Q 54.48 66.24 54.48 61.76 L 54.48 61.76 L 54.48 28.4 L 55.28 28.4 L 55.28 61.76 L 55.28 61.76 Q 55.28 66.56 51.92 69.56 L 51.92 69.56 L 51.92 69.56 Q 48.56 72.56 39.2 72.56 L 39.2 72.56 L 39.2 72.56 Q 29.84 72.56 26.52 69.56 L 26.52 69.56 L 26.52 69.56 Q 23.2 66.56 23.2 61.76 L 23.2 61.76 L 23.2 61.76 Z  M 104.88 71.6 L 104.88 71.6 L 83.36 71.6 L 83.36 28.4 L 99.6 28.4 L 99.6 28.4 Q 102.88 28.4 104.96 29.08 L 104.96 29.08 L 104.96 29.08 Q 107.04 29.76 108.16 30.92 L 108.16 30.92 L 108.16 30.92 Q 109.28 32.08 109.68 33.6 L 109.68 33.6 L 109.68 33.6 Q 110.08 35.12 110.08 36.88 L 110.08 36.88 L 110.08 42 L 110.08 42 Q 110.08 44.4 109.24 46.4 L 109.24 46.4 L 109.24 46.4 Q 108.4 48.4 104.96 49.28 L 104.96 49.28 L 104.96 49.28 Q 108.24 49.28 110.32 49.96 L 110.32 49.96 L 110.32 49.96 Q 112.4 50.64 113.52 51.88 L 113.52 51.88 L 113.52 51.88 Q 114.64 53.12 115 54.8 L 115 54.8 L 115 54.8 Q 115.36 56.48 115.36 58.48 L 115.36 58.48 L 115.36 63.6 L 115.36 63.6 Q 115.36 65.36 114.96 66.84 L 114.96 66.84 L 114.96 66.84 Q 114.56 68.32 113.48 69.36 L 113.48 69.36 L 113.48 69.36 Q 112.4 70.4 110.32 71 L 110.32 71 L 110.32 71 Q 108.24 71.6 104.88 71.6 Z  M 99.6 29.2 L 99.6 29.2 L 84.16 29.2 L 84.16 49.28 L 99.6 49.28 L 99.6 49.28 Q 102.88 49.28 104.8 48.68 L 104.8 48.68 L 104.8 48.68 Q 106.72 48.08 107.72 47.08 L 107.72 47.08 L 107.72 47.08 Q 108.72 46.08 109 44.76 L 109 44.76 L 109 44.76 Q 109.28 43.44 109.28 42 L 109.28 42 L 109.28 36.88 L 109.28 36.88 Q 109.28 33.68 107.44 31.44 L 107.44 31.44 L 107.44 31.44 Q 105.6 29.2 99.6 29.2 Z  M 104.96 50.08 L 104.96 50.08 L 84.16 50.08 L 84.16 70.8 L 104.88 70.8 L 104.88 70.8 Q 110.88 70.8 112.72 68.84 L 112.72 68.84 L 112.72 68.84 Q 114.56 66.88 114.56 63.6 L 114.56 63.6 L 114.56 58.48 L 114.56 58.48 Q 114.56 54.88 112.76 52.48 L 112.76 52.48 L 112.76 52.48 Q 110.96 50.08 104.96 50.08 Z  M 142 70.8 L 168.16 70.8 L 168.16 71.6 L 141.2 71.6 L 141.2 28.4 L 168.16 28.4 L 168.16 29.2 L 142 29.2 L 142 49.28 L 161.68 49.28 L 161.68 50.08 L 142 50.08 L 142 70.8 L 142 70.8 Z  M 211.68 29.2 L 211.68 29.2 L 194.24 29.2 L 194.24 52.32 L 211.68 52.32 L 211.68 52.32 Q 216.64 52.32 218.32 49.92 L 218.32 49.92 L 218.32 49.92 Q 220 47.52 220 43.12 L 220 43.12 L 220 37.52 L 220 37.52 Q 220 33.84 217.96 31.52 L 217.96 31.52 L 217.96 31.52 Q 215.92 29.2 211.68 29.2 Z  M 194.24 53.04 L 194.24 71.6 L 193.44 71.6 L 193.44 28.4 L 211.68 28.4 L 211.68 28.4 Q 216.32 28.4 218.56 31 L 218.56 31 L 218.56 31 Q 220.8 33.6 220.8 37.52 L 220.8 37.52 L 220.8 43.04 L 220.8 43.04 Q 220.8 46.72 219.84 49.08 L 219.84 49.08 L 219.84 49.08 Q 218.88 51.44 216 52.32 L 216 52.32 L 216.88 52.32 L 216.88 52.32 Q 221.76 52.32 224.16 54.52 L 224.16 54.52 L 224.16 54.52 Q 226.56 56.72 226.56 60.88 L 226.56 60.88 L 226.56 71.6 L 225.76 71.6 L 225.76 60.88 L 225.76 60.88 Q 225.76 56.96 223.6 55 L 223.6 55 L 223.6 55 Q 221.44 53.04 216.88 53.04 L 216.88 53.04 L 194.24 53.04 L 194.24 53.04 Z " fill="rgb(74,134,232)"/><path d=" M 27.115 176.318 L 26.773 176.318 L 26.773 125.049 L 30.396 123.34 L 48.648 123.34 L 48.648 123.34 Q 60.611 123.34 60.611 135.303 L 60.611 135.303 L 60.611 145.557 L 60.611 145.557 Q 60.611 157.52 48.648 157.52 L 48.648 157.52 L 33.609 157.52 L 33.609 173.242 L 27.115 176.318 L 27.115 176.318 Z  M 48.648 129.492 L 33.609 129.492 L 33.609 151.367 L 48.648 151.367 L 48.648 151.367 Q 53.775 151.367 53.775 145.557 L 53.775 145.557 L 53.775 135.303 L 53.775 135.303 Q 53.775 129.492 48.648 129.492 L 48.648 129.492 L 48.648 129.492 Z  M 81.207 176.318 L 80.865 176.318 L 80.865 135.303 L 80.865 135.303 Q 80.865 123.34 92.828 123.34 L 92.828 123.34 L 103.423 123.34 L 103.423 123.34 Q 115.386 123.34 115.386 135.303 L 115.386 135.303 L 115.386 173.242 L 108.892 176.318 L 108.55 176.318 L 108.55 152.256 L 87.701 152.256 L 87.701 173.242 L 81.207 176.318 L 81.207 176.318 Z  M 87.701 135.303 L 87.701 146.035 L 108.55 146.035 L 108.55 135.303 L 108.55 135.303 Q 108.55 129.492 103.423 129.492 L 103.423 129.492 L 92.828 129.492 L 92.828 129.492 Q 87.701 129.492 87.701 135.303 L 87.701 135.303 L 87.701 135.303 Z  M 161.617 174.951 L 151.021 174.951 L 151.021 174.951 Q 139.058 174.951 139.058 162.988 L 139.058 162.988 L 139.058 135.303 L 139.058 135.303 Q 139.058 123.34 151.021 123.34 L 151.021 123.34 L 161.617 123.34 L 161.617 123.34 Q 173.58 123.34 173.58 135.303 L 173.58 135.303 L 173.58 139.063 L 167.086 142.139 L 166.744 142.139 L 166.744 135.303 L 166.744 135.303 Q 166.744 129.492 161.617 129.492 L 161.617 129.492 L 151.021 129.492 L 151.021 129.492 Q 145.894 129.492 145.894 135.303 L 145.894 135.303 L 145.894 162.988 L 145.894 162.988 Q 145.894 168.799 151.021 168.799 L 151.021 168.799 L 161.617 168.799 L 161.617 168.799 Q 166.744 168.799 166.744 162.988 L 166.744 162.988 L 166.744 152.256 L 154.849 152.256 L 154.849 151.914 L 157.618 146.035 L 173.58 146.035 L 173.58 162.988 L 173.58 162.988 Q 173.58 174.951 161.617 174.951 L 161.617 174.951 L 161.617 174.951 Z  M 225.484 174.951 L 197.252 174.951 L 197.252 125.049 L 200.875 123.34 L 222.545 123.34 L 222.545 123.682 L 219.776 129.561 L 204.088 129.561 L 204.088 146.035 L 222.545 146.035 L 222.545 146.377 L 219.776 152.256 L 204.088 152.256 L 204.088 168.73 L 228.253 168.73 L 228.253 169.072 L 225.484 174.951 L 225.484 174.951 Z " fill="rgb(255,255,255)"/></g></svg>